# Blender v2.92.0 OBJ File: 'untitled.blend'
# www.blender.org
mtllib portal.mtl
o Cube
v 1.000000 1.000000 -0.003000
v 1.000000 -1.000000 -0.003000
v 1.000000 1.000000 0.003000
v 1.000000 -1.000000 0.003000
v -1.000000 1.000000 -0.003000
v -1.000000 -1.000000 -0.003000
v -1.000000 1.000000 0.003000
v -1.000000 -1.000000 0.003000
vt 0.625000 0.500000
vt 0.875000 0.500000
vt 0.875000 0.750000
vt 0.625000 0.750000
vt 1.000000 0.999008
vt 0.999889 0.000165
vt -0.000008 0.001340
vt 0.000295 1.000075
vt 0.375000 0.000000
vt 0.625000 0.000000
vt 0.625000 0.250000
vt 0.375000 0.250000
vt 0.125000 0.500000
vt 0.375000 0.500000
vt 0.375000 0.750000
vt 0.125000 0.750000
vt 0.999785 1.000818
vt 0.999881 0.000632
vt 0.000822 0.001313
vt 0.000376 0.998853
vn 0.0000 1.0000 0.0000
vn 0.0000 0.0000 1.0000
vn -1.0000 0.0000 0.0000
vn 0.0000 -1.0000 0.0000
vn 1.0000 0.0000 0.0000
vn 0.0000 0.0000 -1.0000
usemtl Material
s off
f 1/1/1 5/2/1 7/3/1 3/4/1
f 4/5/2 3/6/2 7/7/2 8/8/2
f 8/9/3 7/10/3 5/11/3 6/12/3
f 6/13/4 2/14/4 4/15/4 8/16/4
f 2/14/5 1/1/5 3/4/5 4/15/5
f 6/17/6 5/18/6 1/19/6 2/20/6
